<svg width="34" height="34" viewBox="0 0 34 34" fill="none" xmlns="http://www.w3.org/2000/svg">
<path d="M17 0.5C26.1125 0.5 33.5 7.8875 33.5 17C33.5 26.1125 26.1125 33.5 17 33.5C7.8875 33.5 0.5 26.1125 0.5 17C0.5 7.8875 7.8875 0.5 17 0.5ZM22.6918 23.726C22.9948 22.7952 24.4175 13.5147 24.5923 11.6855C24.6455 11.132 24.47 10.7638 24.128 10.5988C23.7133 10.4 23.0997 10.499 22.3865 10.7562C21.4092 11.1087 8.918 16.412 8.1965 16.7195C7.5125 17.0105 6.86525 17.327 6.86525 17.7867C6.86525 18.11 7.05725 18.2915 7.58525 18.4797C8.13425 18.6755 9.518 19.0948 10.3362 19.3205C11.1237 19.538 12.0185 19.349 12.521 19.037C13.0527 18.7062 19.1967 14.5962 19.637 14.2355C20.0772 13.8755 20.429 14.3368 20.069 14.6975C19.709 15.0575 15.4925 19.1503 14.936 19.7173C14.2602 20.405 14.7395 21.1183 15.1932 21.404C15.71 21.7303 19.43 24.2247 19.9902 24.6252C20.5505 25.0257 21.1183 25.2073 21.6388 25.2073C22.1593 25.2065 22.433 24.521 22.6918 23.726Z" fill="#30A5D7"/>
</svg>
