<svg width="20" height="20" viewBox="0 0 20 20" fill="none" xmlns="http://www.w3.org/2000/svg">
<path d="M10 0C15.5229 0 20 4.47706 20 10C20 15.5229 15.5229 20 10 20C4.47706 20 0 15.5229 0 10C0 4.47706 4.47706 0 10 0ZM13.4494 14.0765C13.6329 13.5124 14.4953 7.88765 14.6012 6.77941C14.6335 6.44353 14.5271 6.22059 14.32 6.12118C14.0688 6.00059 13.6965 6.06059 13.2647 6.21647C12.6724 6.43 5.10235 9.64412 4.66471 9.83059C4.25059 10.0071 3.85765 10.1988 3.85765 10.4776C3.85765 10.6735 3.97412 10.7835 4.29412 10.8976C4.62706 11.0165 5.46588 11.2706 5.96118 11.4071C6.43824 11.5388 6.98118 11.4247 7.28529 11.2353C7.60765 11.0347 11.3312 8.54353 11.5982 8.32529C11.8653 8.10706 12.0782 8.38647 11.86 8.60529C11.6418 8.82353 9.08647 11.3041 8.74882 11.6476C8.33941 12.0647 8.63 12.4965 8.90471 12.67C9.21824 12.8676 11.4724 14.3794 11.8124 14.6224C12.1524 14.8647 12.4959 14.9747 12.8118 14.9747C13.1271 14.9741 13.2924 14.5582 13.4494 14.0765Z" fill="#30ADED"/>
</svg>
